<svg xmlns="http://www.w3.org/2000/svg" viewBox="0 0 1024 1024" width="1024" height="1024" role="img" aria-label="Chunky">
  <title>Chunky — app icon</title>
  <desc>Generated by scripts/generate-brand-assets.py. Edit the geometry there, not this file.</desc>
  <defs>
    <linearGradient id="chunkyTile" gradientUnits="userSpaceOnUse" x1="100" y1="100" x2="924" y2="924">
      <stop offset="0" stop-color="#33225E"/>
      <stop offset="0.52" stop-color="#1B1233"/>
      <stop offset="1" stop-color="#0D0817"/>
    </linearGradient>
    <radialGradient id="chunkyGlow" gradientUnits="userSpaceOnUse" cx="514.88" cy="512" r="532.48">
      <stop offset="0" stop-color="#7C4DDB" stop-opacity="0.34"/>
      <stop offset="0.55" stop-color="#7C4DDB" stop-opacity="0.13"/>
      <stop offset="1" stop-color="#7C4DDB" stop-opacity="0"/>
    </radialGradient>
    <linearGradient id="chunkyEdge" gradientUnits="userSpaceOnUse" x1="0" y1="100" x2="0" y2="634.88">
      <stop offset="0" stop-color="#FFFFFF" stop-opacity="0.13"/>
      <stop offset="1" stop-color="#FFFFFF" stop-opacity="0"/>
    </linearGradient>
    <linearGradient id="chunkyMark" gradientUnits="userSpaceOnUse" x1="237.12" y1="234.24" x2="826.24" y2="789.76">
      <stop offset="0" stop-color="#B394FF"/>
      <stop offset="0.46" stop-color="#7C4DDB"/>
      <stop offset="1" stop-color="#5A2EB6"/>
    </linearGradient>
    <linearGradient id="chunkyCaret" gradientUnits="userSpaceOnUse" x1="700.8" y1="405.6" x2="826.24" y2="618.4">
      <stop offset="0" stop-color="#F4EEFF"/>
      <stop offset="1" stop-color="#BCA1FF"/>
    </linearGradient>
    <clipPath id="chunkyTileClip"><path d="M924 512L923.99 582.87L923.95 605.51L923.89 621.97L923.8 635.37L923.69 646.88L923.55 657.07L923.39 666.27L923.21 674.71L922.99 682.53L922.76 689.84L922.5 696.71L922.21 703.21L921.9 709.38L921.56 715.26L921.2 720.89L920.81 726.28L920.4 731.47L919.97 736.47L919.5 741.29L919.02 745.95L918.5 750.46L917.96 754.84L917.4 759.08L916.81 763.2L916.19 767.21L915.55 771.12L914.89 774.92L914.19 778.62L913.47 782.23L912.73 785.76L911.95 789.2L911.16 792.56L910.33 795.85L909.48 799.07L908.6 802.21L907.7 805.29L906.76 808.3L905.81 811.25L904.82 814.14L903.8 816.97L902.76 819.74L901.69 822.46L900.6 825.12L899.47 827.73L898.31 830.29L897.13 832.8L895.92 835.27L894.68 837.68L893.41 840.05L892.11 842.38L890.78 844.66L889.42 846.89L888.03 849.09L886.61 851.24L885.16 853.36L883.68 855.43L882.17 857.47L880.62 859.46L879.05 861.42L877.44 863.34L875.8 865.23L874.12 867.08L872.41 868.89L870.67 870.67L868.89 872.41L867.08 874.12L865.23 875.8L863.34 877.44L861.42 879.05L859.46 880.62L857.47 882.17L855.43 883.68L853.36 885.16L851.24 886.61L849.09 888.03L846.89 889.42L844.66 890.78L842.38 892.11L840.05 893.41L837.68 894.68L835.27 895.92L832.8 897.13L830.29 898.31L827.73 899.47L825.12 900.6L822.46 901.69L819.74 902.76L816.97 903.8L814.14 904.82L811.25 905.81L808.3 906.76L805.29 907.7L802.21 908.6L799.07 909.48L795.85 910.33L792.56 911.16L789.2 911.95L785.76 912.73L782.23 913.47L778.62 914.19L774.92 914.89L771.12 915.55L767.21 916.19L763.2 916.81L759.08 917.4L754.84 917.96L750.46 918.5L745.95 919.02L741.29 919.5L736.47 919.97L731.47 920.4L726.28 920.81L720.89 921.2L715.26 921.56L709.38 921.9L703.21 922.21L696.71 922.5L689.84 922.76L682.53 922.99L674.71 923.21L666.27 923.39L657.07 923.55L646.88 923.69L635.37 923.8L621.97 923.89L605.51 923.95L582.87 923.99L512 924L441.13 923.99L418.49 923.95L402.03 923.89L388.63 923.8L377.12 923.69L366.93 923.55L357.73 923.39L349.29 923.21L341.47 922.99L334.16 922.76L327.29 922.5L320.79 922.21L314.62 921.9L308.74 921.56L303.11 921.2L297.72 920.81L292.53 920.4L287.53 919.97L282.71 919.5L278.05 919.02L273.54 918.5L269.16 917.96L264.92 917.4L260.8 916.81L256.79 916.19L252.88 915.55L249.08 914.89L245.38 914.19L241.77 913.47L238.24 912.73L234.8 911.95L231.44 911.16L228.15 910.33L224.93 909.48L221.79 908.6L218.71 907.7L215.7 906.76L212.75 905.81L209.86 904.82L207.03 903.8L204.26 902.76L201.54 901.69L198.88 900.6L196.27 899.47L193.71 898.31L191.2 897.13L188.73 895.92L186.32 894.68L183.95 893.41L181.62 892.11L179.34 890.78L177.11 889.42L174.91 888.03L172.76 886.61L170.64 885.16L168.57 883.68L166.53 882.17L164.54 880.62L162.58 879.05L160.66 877.44L158.77 875.8L156.92 874.12L155.11 872.41L153.33 870.67L151.59 868.89L149.88 867.08L148.2 865.23L146.56 863.34L144.95 861.42L143.38 859.46L141.83 857.47L140.32 855.43L138.84 853.36L137.39 851.24L135.97 849.09L134.58 846.89L133.22 844.66L131.89 842.38L130.59 840.05L129.32 837.68L128.08 835.27L126.87 832.8L125.69 830.29L124.53 827.73L123.4 825.12L122.31 822.46L121.24 819.74L120.2 816.97L119.18 814.14L118.19 811.25L117.24 808.3L116.3 805.29L115.4 802.21L114.52 799.07L113.67 795.85L112.84 792.56L112.05 789.2L111.27 785.76L110.53 782.23L109.81 778.62L109.11 774.92L108.45 771.12L107.81 767.21L107.19 763.2L106.6 759.08L106.04 754.84L105.5 750.46L104.98 745.95L104.5 741.29L104.03 736.47L103.6 731.47L103.19 726.28L102.8 720.89L102.44 715.26L102.1 709.38L101.79 703.21L101.5 696.71L101.24 689.84L101.01 682.53L100.79 674.71L100.61 666.27L100.45 657.07L100.31 646.88L100.2 635.37L100.11 621.97L100.05 605.51L100.01 582.87L100 512L100.01 441.13L100.05 418.49L100.11 402.03L100.2 388.63L100.31 377.12L100.45 366.93L100.61 357.73L100.79 349.29L101.01 341.47L101.24 334.16L101.5 327.29L101.79 320.79L102.1 314.62L102.44 308.74L102.8 303.11L103.19 297.72L103.6 292.53L104.03 287.53L104.5 282.71L104.98 278.05L105.5 273.54L106.04 269.16L106.6 264.92L107.19 260.8L107.81 256.79L108.45 252.88L109.11 249.08L109.81 245.38L110.53 241.77L111.27 238.24L112.05 234.8L112.84 231.44L113.67 228.15L114.52 224.93L115.4 221.79L116.3 218.71L117.24 215.7L118.19 212.75L119.18 209.86L120.2 207.03L121.24 204.26L122.31 201.54L123.4 198.88L124.53 196.27L125.69 193.71L126.87 191.2L128.08 188.73L129.32 186.32L130.59 183.95L131.89 181.62L133.22 179.34L134.58 177.11L135.97 174.91L137.39 172.76L138.84 170.64L140.32 168.57L141.83 166.53L143.38 164.54L144.95 162.58L146.56 160.66L148.2 158.77L149.88 156.92L151.59 155.11L153.33 153.33L155.11 151.59L156.92 149.88L158.77 148.2L160.66 146.56L162.58 144.95L164.54 143.38L166.53 141.83L168.57 140.32L170.64 138.84L172.76 137.39L174.91 135.97L177.11 134.58L179.34 133.22L181.62 131.89L183.95 130.59L186.32 129.32L188.73 128.08L191.2 126.87L193.71 125.69L196.27 124.53L198.88 123.4L201.54 122.31L204.26 121.24L207.03 120.2L209.86 119.18L212.75 118.19L215.7 117.24L218.71 116.3L221.79 115.4L224.93 114.52L228.15 113.67L231.44 112.84L234.8 112.05L238.24 111.27L241.77 110.53L245.38 109.81L249.08 109.11L252.88 108.45L256.79 107.81L260.8 107.19L264.92 106.6L269.16 106.04L273.54 105.5L278.05 104.98L282.71 104.5L287.53 104.03L292.53 103.6L297.72 103.19L303.11 102.8L308.74 102.44L314.62 102.1L320.79 101.79L327.29 101.5L334.16 101.24L341.47 101.01L349.29 100.79L357.73 100.61L366.93 100.45L377.12 100.31L388.63 100.2L402.03 100.11L418.49 100.05L441.13 100.01L512 100L582.87 100.01L605.51 100.05L621.97 100.11L635.37 100.2L646.88 100.31L657.07 100.45L666.27 100.61L674.71 100.79L682.53 101.01L689.84 101.24L696.71 101.5L703.21 101.79L709.38 102.1L715.26 102.44L720.89 102.8L726.28 103.19L731.47 103.6L736.47 104.03L741.29 104.5L745.95 104.98L750.46 105.5L754.84 106.04L759.08 106.6L763.2 107.19L767.21 107.81L771.12 108.45L774.92 109.11L778.62 109.81L782.23 110.53L785.76 111.27L789.2 112.05L792.56 112.84L795.85 113.67L799.07 114.52L802.21 115.4L805.29 116.3L808.3 117.24L811.25 118.19L814.14 119.18L816.97 120.2L819.74 121.24L822.46 122.31L825.12 123.4L827.73 124.53L830.29 125.69L832.8 126.87L835.27 128.08L837.68 129.32L840.05 130.59L842.38 131.89L844.66 133.22L846.89 134.58L849.09 135.97L851.24 137.39L853.36 138.84L855.43 140.32L857.47 141.83L859.46 143.38L861.42 144.95L863.34 146.56L865.23 148.2L867.08 149.88L868.89 151.59L870.67 153.33L872.41 155.11L874.12 156.92L875.8 158.77L877.44 160.66L879.05 162.58L880.62 164.54L882.17 166.53L883.68 168.57L885.16 170.64L886.61 172.76L888.03 174.91L889.42 177.11L890.78 179.34L892.11 181.62L893.41 183.95L894.68 186.32L895.92 188.73L897.13 191.2L898.31 193.71L899.47 196.27L900.6 198.88L901.69 201.54L902.76 204.26L903.8 207.03L904.82 209.86L905.81 212.75L906.76 215.7L907.7 218.71L908.6 221.79L909.48 224.93L910.33 228.15L911.16 231.44L911.95 234.8L912.73 238.24L913.47 241.77L914.19 245.38L914.89 249.08L915.55 252.88L916.19 256.79L916.81 260.8L917.4 264.92L917.96 269.16L918.5 273.54L919.02 278.05L919.5 282.71L919.97 287.53L920.4 292.53L920.81 297.72L921.2 303.11L921.56 308.74L921.9 314.62L922.21 320.79L922.5 327.29L922.76 334.16L922.99 341.47L923.21 349.29L923.39 357.73L923.55 366.93L923.69 377.12L923.8 388.63L923.89 402.03L923.95 418.49L923.99 441.13Z"/></clipPath>
  </defs>
  <path fill="url(#chunkyTile)" d="M924 512L923.99 582.87L923.95 605.51L923.89 621.97L923.8 635.37L923.69 646.88L923.55 657.07L923.39 666.27L923.21 674.71L922.99 682.53L922.76 689.84L922.5 696.71L922.21 703.21L921.9 709.38L921.56 715.26L921.2 720.89L920.81 726.28L920.4 731.47L919.97 736.47L919.5 741.29L919.02 745.95L918.5 750.46L917.96 754.84L917.4 759.08L916.81 763.2L916.19 767.21L915.55 771.12L914.89 774.92L914.19 778.62L913.47 782.23L912.73 785.76L911.95 789.2L911.16 792.56L910.33 795.85L909.48 799.07L908.6 802.21L907.7 805.29L906.76 808.3L905.81 811.25L904.82 814.14L903.8 816.97L902.76 819.74L901.69 822.46L900.6 825.12L899.47 827.73L898.31 830.29L897.13 832.8L895.92 835.27L894.68 837.68L893.41 840.05L892.11 842.38L890.78 844.66L889.42 846.89L888.03 849.09L886.61 851.24L885.16 853.36L883.68 855.43L882.17 857.47L880.62 859.46L879.05 861.42L877.44 863.34L875.8 865.23L874.12 867.08L872.41 868.89L870.67 870.67L868.89 872.41L867.08 874.12L865.23 875.8L863.34 877.44L861.42 879.05L859.46 880.62L857.47 882.17L855.43 883.68L853.36 885.16L851.24 886.61L849.09 888.03L846.89 889.42L844.66 890.78L842.38 892.11L840.05 893.41L837.68 894.68L835.27 895.92L832.8 897.13L830.29 898.31L827.73 899.47L825.12 900.6L822.46 901.69L819.74 902.76L816.97 903.8L814.14 904.82L811.25 905.81L808.3 906.76L805.29 907.7L802.21 908.6L799.07 909.48L795.85 910.33L792.56 911.16L789.2 911.95L785.76 912.73L782.23 913.47L778.62 914.19L774.92 914.89L771.12 915.55L767.21 916.19L763.2 916.81L759.08 917.4L754.84 917.96L750.46 918.5L745.95 919.02L741.29 919.5L736.47 919.97L731.47 920.4L726.28 920.81L720.89 921.2L715.26 921.56L709.38 921.9L703.21 922.21L696.71 922.5L689.84 922.76L682.53 922.99L674.71 923.21L666.27 923.39L657.07 923.55L646.88 923.69L635.37 923.8L621.97 923.89L605.51 923.95L582.87 923.99L512 924L441.13 923.99L418.49 923.95L402.03 923.89L388.63 923.8L377.12 923.69L366.93 923.55L357.73 923.39L349.29 923.21L341.47 922.99L334.16 922.76L327.29 922.5L320.79 922.21L314.62 921.9L308.74 921.56L303.11 921.2L297.72 920.81L292.53 920.4L287.53 919.97L282.71 919.5L278.05 919.02L273.54 918.5L269.16 917.96L264.92 917.4L260.8 916.81L256.79 916.19L252.88 915.55L249.08 914.89L245.38 914.19L241.77 913.47L238.24 912.73L234.8 911.95L231.44 911.16L228.15 910.33L224.93 909.48L221.79 908.6L218.71 907.7L215.7 906.76L212.75 905.81L209.86 904.82L207.03 903.8L204.26 902.76L201.54 901.69L198.88 900.6L196.27 899.47L193.71 898.31L191.2 897.13L188.73 895.92L186.32 894.68L183.95 893.41L181.62 892.11L179.34 890.78L177.11 889.42L174.91 888.03L172.76 886.61L170.64 885.16L168.57 883.68L166.53 882.17L164.54 880.62L162.58 879.05L160.66 877.44L158.77 875.8L156.92 874.12L155.11 872.41L153.33 870.67L151.59 868.89L149.88 867.08L148.2 865.23L146.56 863.34L144.95 861.42L143.38 859.46L141.83 857.47L140.32 855.43L138.84 853.36L137.39 851.24L135.97 849.09L134.58 846.89L133.22 844.66L131.89 842.38L130.59 840.05L129.32 837.68L128.08 835.27L126.87 832.8L125.69 830.29L124.53 827.73L123.4 825.12L122.31 822.46L121.24 819.74L120.2 816.97L119.18 814.14L118.19 811.25L117.24 808.3L116.3 805.29L115.4 802.21L114.52 799.07L113.67 795.85L112.84 792.56L112.05 789.2L111.27 785.76L110.53 782.23L109.81 778.62L109.11 774.92L108.45 771.12L107.81 767.21L107.19 763.2L106.6 759.08L106.04 754.84L105.5 750.46L104.98 745.95L104.5 741.29L104.03 736.47L103.6 731.47L103.19 726.28L102.8 720.89L102.44 715.26L102.1 709.38L101.79 703.21L101.5 696.71L101.24 689.84L101.01 682.53L100.79 674.71L100.61 666.27L100.45 657.07L100.31 646.88L100.2 635.37L100.11 621.97L100.05 605.51L100.01 582.87L100 512L100.01 441.13L100.05 418.49L100.11 402.03L100.2 388.63L100.31 377.12L100.45 366.93L100.61 357.73L100.79 349.29L101.01 341.47L101.24 334.16L101.5 327.29L101.79 320.79L102.1 314.62L102.44 308.74L102.8 303.11L103.19 297.72L103.6 292.53L104.03 287.53L104.5 282.71L104.98 278.05L105.5 273.54L106.04 269.16L106.6 264.92L107.19 260.8L107.81 256.79L108.45 252.88L109.11 249.08L109.81 245.38L110.53 241.77L111.27 238.24L112.05 234.8L112.84 231.44L113.67 228.15L114.52 224.93L115.4 221.79L116.3 218.71L117.24 215.7L118.19 212.75L119.18 209.86L120.2 207.03L121.24 204.26L122.31 201.54L123.4 198.88L124.53 196.27L125.69 193.71L126.87 191.2L128.08 188.73L129.32 186.32L130.59 183.95L131.89 181.62L133.22 179.34L134.58 177.11L135.97 174.91L137.39 172.76L138.84 170.64L140.32 168.57L141.83 166.53L143.38 164.54L144.95 162.58L146.56 160.66L148.2 158.77L149.88 156.92L151.59 155.11L153.33 153.33L155.11 151.59L156.92 149.88L158.77 148.2L160.66 146.56L162.58 144.95L164.54 143.38L166.53 141.83L168.57 140.32L170.64 138.84L172.76 137.39L174.91 135.97L177.11 134.58L179.34 133.22L181.62 131.89L183.95 130.59L186.32 129.32L188.73 128.08L191.2 126.87L193.71 125.69L196.27 124.53L198.88 123.4L201.54 122.31L204.26 121.24L207.03 120.2L209.86 119.18L212.75 118.19L215.7 117.24L218.71 116.3L221.79 115.4L224.93 114.52L228.15 113.67L231.44 112.84L234.8 112.05L238.24 111.27L241.77 110.53L245.38 109.81L249.08 109.11L252.88 108.45L256.79 107.81L260.8 107.19L264.92 106.6L269.16 106.04L273.54 105.5L278.05 104.98L282.71 104.5L287.53 104.03L292.53 103.6L297.72 103.19L303.11 102.8L308.74 102.44L314.62 102.1L320.79 101.79L327.29 101.5L334.16 101.24L341.47 101.01L349.29 100.79L357.73 100.61L366.93 100.45L377.12 100.31L388.63 100.2L402.03 100.11L418.49 100.05L441.13 100.01L512 100L582.87 100.01L605.51 100.05L621.97 100.11L635.37 100.2L646.88 100.31L657.07 100.45L666.27 100.61L674.71 100.79L682.53 101.01L689.84 101.24L696.71 101.5L703.21 101.79L709.38 102.1L715.26 102.44L720.89 102.8L726.28 103.19L731.47 103.6L736.47 104.03L741.29 104.5L745.95 104.98L750.46 105.5L754.84 106.04L759.08 106.6L763.2 107.19L767.21 107.81L771.12 108.45L774.92 109.11L778.62 109.81L782.23 110.53L785.76 111.27L789.2 112.05L792.56 112.84L795.85 113.67L799.07 114.52L802.21 115.4L805.29 116.3L808.3 117.24L811.25 118.19L814.14 119.18L816.97 120.2L819.74 121.24L822.46 122.31L825.12 123.4L827.73 124.53L830.29 125.69L832.8 126.87L835.27 128.08L837.68 129.32L840.05 130.59L842.38 131.89L844.66 133.22L846.89 134.58L849.09 135.97L851.24 137.39L853.36 138.84L855.43 140.32L857.47 141.83L859.46 143.38L861.42 144.95L863.34 146.56L865.23 148.2L867.08 149.88L868.89 151.59L870.67 153.33L872.41 155.11L874.12 156.92L875.8 158.77L877.44 160.66L879.05 162.58L880.62 164.54L882.17 166.53L883.68 168.57L885.16 170.64L886.61 172.76L888.03 174.91L889.42 177.11L890.78 179.34L892.11 181.62L893.41 183.95L894.68 186.32L895.92 188.73L897.13 191.2L898.31 193.71L899.47 196.27L900.6 198.88L901.69 201.54L902.76 204.26L903.8 207.03L904.82 209.86L905.81 212.75L906.76 215.7L907.7 218.71L908.6 221.79L909.48 224.93L910.33 228.15L911.16 231.44L911.95 234.8L912.73 238.24L913.47 241.77L914.19 245.38L914.89 249.08L915.55 252.88L916.19 256.79L916.81 260.8L917.4 264.92L917.96 269.16L918.5 273.54L919.02 278.05L919.5 282.71L919.97 287.53L920.4 292.53L920.81 297.72L921.2 303.11L921.56 308.74L921.9 314.62L922.21 320.79L922.5 327.29L922.76 334.16L922.99 341.47L923.21 349.29L923.39 357.73L923.55 366.93L923.69 377.12L923.8 388.63L923.89 402.03L923.95 418.49L923.99 441.13Z"/>
  <g clip-path="url(#chunkyTileClip)">
    <rect x="0" y="0" width="1024" height="1024" fill="url(#chunkyGlow)"/>
    <path fill="none" stroke="url(#chunkyEdge)" stroke-width="3.5" d="M924 512L923.99 582.87L923.95 605.51L923.89 621.97L923.8 635.37L923.69 646.88L923.55 657.07L923.39 666.27L923.21 674.71L922.99 682.53L922.76 689.84L922.5 696.71L922.21 703.21L921.9 709.38L921.56 715.26L921.2 720.89L920.81 726.28L920.4 731.47L919.97 736.47L919.5 741.29L919.02 745.95L918.5 750.46L917.96 754.84L917.4 759.08L916.81 763.2L916.19 767.21L915.55 771.12L914.89 774.92L914.19 778.62L913.47 782.23L912.73 785.76L911.95 789.2L911.16 792.56L910.33 795.85L909.48 799.07L908.6 802.21L907.7 805.29L906.76 808.3L905.81 811.25L904.82 814.14L903.8 816.97L902.76 819.74L901.69 822.46L900.6 825.12L899.47 827.73L898.31 830.29L897.13 832.8L895.92 835.27L894.68 837.68L893.41 840.05L892.11 842.38L890.78 844.66L889.42 846.89L888.03 849.09L886.61 851.24L885.16 853.36L883.68 855.43L882.17 857.47L880.62 859.46L879.05 861.42L877.44 863.34L875.8 865.23L874.12 867.08L872.41 868.89L870.67 870.67L868.89 872.41L867.08 874.12L865.23 875.8L863.34 877.44L861.42 879.05L859.46 880.62L857.47 882.17L855.43 883.68L853.36 885.16L851.24 886.61L849.09 888.03L846.89 889.42L844.66 890.78L842.38 892.11L840.05 893.41L837.68 894.68L835.27 895.92L832.8 897.13L830.29 898.31L827.73 899.47L825.12 900.6L822.46 901.69L819.74 902.76L816.97 903.8L814.14 904.82L811.25 905.81L808.3 906.76L805.29 907.7L802.21 908.6L799.07 909.48L795.85 910.33L792.56 911.16L789.2 911.95L785.76 912.73L782.23 913.47L778.62 914.19L774.92 914.89L771.12 915.55L767.21 916.19L763.2 916.81L759.08 917.4L754.84 917.96L750.46 918.5L745.95 919.02L741.29 919.5L736.47 919.97L731.47 920.4L726.28 920.81L720.89 921.2L715.26 921.56L709.38 921.9L703.21 922.21L696.71 922.5L689.84 922.76L682.53 922.99L674.71 923.21L666.27 923.39L657.07 923.55L646.88 923.69L635.37 923.8L621.97 923.89L605.51 923.95L582.87 923.99L512 924L441.13 923.99L418.49 923.95L402.03 923.89L388.63 923.8L377.12 923.69L366.93 923.55L357.73 923.39L349.29 923.21L341.47 922.99L334.16 922.76L327.29 922.5L320.79 922.21L314.62 921.9L308.74 921.56L303.11 921.2L297.72 920.81L292.53 920.4L287.53 919.97L282.71 919.5L278.05 919.02L273.54 918.5L269.16 917.96L264.92 917.4L260.8 916.81L256.79 916.19L252.88 915.55L249.08 914.89L245.38 914.19L241.77 913.47L238.24 912.73L234.8 911.95L231.44 911.16L228.15 910.33L224.93 909.48L221.79 908.6L218.71 907.7L215.7 906.76L212.75 905.81L209.86 904.82L207.03 903.8L204.26 902.76L201.54 901.69L198.88 900.6L196.27 899.47L193.71 898.31L191.2 897.13L188.73 895.92L186.32 894.68L183.95 893.41L181.62 892.11L179.34 890.78L177.11 889.42L174.91 888.03L172.76 886.61L170.64 885.16L168.57 883.68L166.53 882.17L164.54 880.62L162.58 879.05L160.66 877.44L158.77 875.8L156.92 874.12L155.11 872.41L153.33 870.67L151.59 868.89L149.88 867.08L148.2 865.23L146.56 863.34L144.95 861.42L143.38 859.46L141.83 857.47L140.32 855.43L138.84 853.36L137.39 851.24L135.97 849.09L134.58 846.89L133.22 844.66L131.89 842.38L130.59 840.05L129.32 837.68L128.08 835.27L126.87 832.8L125.69 830.29L124.53 827.73L123.4 825.12L122.31 822.46L121.24 819.74L120.2 816.97L119.18 814.14L118.19 811.25L117.24 808.3L116.3 805.29L115.4 802.21L114.52 799.07L113.67 795.85L112.84 792.56L112.05 789.2L111.27 785.76L110.53 782.23L109.81 778.62L109.11 774.92L108.45 771.12L107.81 767.21L107.19 763.2L106.6 759.08L106.04 754.84L105.5 750.46L104.98 745.95L104.5 741.29L104.03 736.47L103.6 731.47L103.19 726.28L102.8 720.89L102.44 715.26L102.1 709.38L101.79 703.21L101.5 696.71L101.24 689.84L101.01 682.53L100.79 674.71L100.61 666.27L100.45 657.07L100.31 646.88L100.2 635.37L100.11 621.97L100.05 605.51L100.01 582.87L100 512L100.01 441.13L100.05 418.49L100.11 402.03L100.2 388.63L100.31 377.12L100.45 366.93L100.61 357.73L100.79 349.29L101.01 341.47L101.24 334.16L101.5 327.29L101.79 320.79L102.1 314.62L102.44 308.74L102.8 303.11L103.19 297.72L103.6 292.53L104.03 287.53L104.5 282.71L104.98 278.05L105.5 273.54L106.04 269.16L106.6 264.92L107.19 260.8L107.81 256.79L108.45 252.88L109.11 249.08L109.81 245.38L110.53 241.77L111.27 238.24L112.05 234.8L112.84 231.44L113.67 228.15L114.52 224.93L115.4 221.79L116.3 218.71L117.24 215.7L118.19 212.75L119.18 209.86L120.2 207.03L121.24 204.26L122.31 201.54L123.4 198.88L124.53 196.27L125.69 193.71L126.87 191.2L128.08 188.73L129.32 186.32L130.59 183.95L131.89 181.62L133.22 179.34L134.58 177.11L135.97 174.91L137.39 172.76L138.84 170.64L140.32 168.57L141.83 166.53L143.38 164.54L144.95 162.58L146.56 160.66L148.2 158.77L149.88 156.92L151.59 155.11L153.33 153.33L155.11 151.59L156.92 149.88L158.77 148.2L160.66 146.56L162.58 144.95L164.54 143.38L166.53 141.83L168.57 140.32L170.64 138.84L172.76 137.39L174.91 135.97L177.11 134.58L179.34 133.22L181.62 131.89L183.95 130.59L186.32 129.32L188.73 128.08L191.2 126.87L193.71 125.69L196.27 124.53L198.88 123.4L201.54 122.31L204.26 121.24L207.03 120.2L209.86 119.18L212.75 118.19L215.7 117.24L218.71 116.3L221.79 115.4L224.93 114.52L228.15 113.67L231.44 112.84L234.8 112.05L238.24 111.27L241.77 110.53L245.38 109.81L249.08 109.11L252.88 108.45L256.79 107.81L260.8 107.19L264.92 106.6L269.16 106.04L273.54 105.5L278.05 104.98L282.71 104.5L287.53 104.03L292.53 103.6L297.72 103.19L303.11 102.8L308.74 102.44L314.62 102.1L320.79 101.79L327.29 101.5L334.16 101.24L341.47 101.01L349.29 100.79L357.73 100.61L366.93 100.45L377.12 100.31L388.63 100.2L402.03 100.11L418.49 100.05L441.13 100.01L512 100L582.87 100.01L605.51 100.05L621.97 100.11L635.37 100.2L646.88 100.31L657.07 100.45L666.27 100.61L674.71 100.79L682.53 101.01L689.84 101.24L696.71 101.5L703.21 101.79L709.38 102.1L715.26 102.44L720.89 102.8L726.28 103.19L731.47 103.6L736.47 104.03L741.29 104.5L745.95 104.98L750.46 105.5L754.84 106.04L759.08 106.6L763.2 107.19L767.21 107.81L771.12 108.45L774.92 109.11L778.62 109.81L782.23 110.53L785.76 111.27L789.2 112.05L792.56 112.84L795.85 113.67L799.07 114.52L802.21 115.4L805.29 116.3L808.3 117.24L811.25 118.19L814.14 119.18L816.97 120.2L819.74 121.24L822.46 122.31L825.12 123.4L827.73 124.53L830.29 125.69L832.8 126.87L835.27 128.08L837.68 129.32L840.05 130.59L842.38 131.89L844.66 133.22L846.89 134.58L849.09 135.97L851.24 137.39L853.36 138.84L855.43 140.32L857.47 141.83L859.46 143.38L861.42 144.95L863.34 146.56L865.23 148.2L867.08 149.88L868.89 151.59L870.67 153.33L872.41 155.11L874.12 156.92L875.8 158.77L877.44 160.66L879.05 162.58L880.62 164.54L882.17 166.53L883.68 168.57L885.16 170.64L886.61 172.76L888.03 174.91L889.42 177.11L890.78 179.34L892.11 181.62L893.41 183.95L894.68 186.32L895.92 188.73L897.13 191.2L898.31 193.71L899.47 196.27L900.6 198.88L901.69 201.54L902.76 204.26L903.8 207.03L904.82 209.86L905.81 212.75L906.76 215.7L907.7 218.71L908.6 221.79L909.48 224.93L910.33 228.15L911.16 231.44L911.95 234.8L912.73 238.24L913.47 241.77L914.19 245.38L914.89 249.08L915.55 252.88L916.19 256.79L916.81 260.8L917.4 264.92L917.96 269.16L918.5 273.54L919.02 278.05L919.5 282.71L919.97 287.53L920.4 292.53L920.81 297.72L921.2 303.11L921.56 308.74L921.9 314.62L922.21 320.79L922.5 327.29L922.76 334.16L922.99 341.47L923.21 349.29L923.39 357.73L923.55 366.93L923.69 377.12L923.8 388.63L923.89 402.03L923.95 418.49L923.99 441.13Z"/>
  </g>
  <path fill="url(#chunkyMark)" d="M678.15 287.29A277.76 277.76 0 1 0 678.15 736.71L601.78 631.61A147.84 147.84 0 1 1 601.78 392.39Z"/>
  <rect fill="url(#chunkyCaret)" x="700.8" y="405.6" width="125.44" height="212.8" rx="26.88"/>
</svg>
